<svg id="visual" viewBox="0 0 675 900" width="675" height="900" xmlns="http://www.w3.org/2000/svg" xmlns:xlink="http://www.w3.org/1999/xlink" version="1.1"><path d="M0 127L8.7 131.5C17.3 136 34.7 145 52 155.5C69.3 166 86.7 178 104 181C121.3 184 138.7 178 156 161.5C173.3 145 190.7 118 208 121C225.3 124 242.7 157 260 167.5C277.3 178 294.7 166 311.8 149.5C329 133 346 112 363.2 106C380.3 100 397.7 109 415 121C432.3 133 449.7 148 467 149.5C484.3 151 501.7 139 519 134.5C536.3 130 553.7 133 571 130C588.3 127 605.7 118 623 113.5C640.3 109 657.7 109 666.3 109L675 109L675 0L666.3 0C657.7 0 640.3 0 623 0C605.7 0 588.3 0 571 0C553.7 0 536.3 0 519 0C501.7 0 484.3 0 467 0C449.7 0 432.3 0 415 0C397.7 0 380.3 0 363.2 0C346 0 329 0 311.8 0C294.7 0 277.3 0 260 0C242.7 0 225.3 0 208 0C190.7 0 173.3 0 156 0C138.7 0 121.3 0 104 0C86.7 0 69.3 0 52 0C34.7 0 17.3 0 8.7 0L0 0Z" fill="#6198ff"></path><path d="M0 253L8.7 274C17.3 295 34.7 337 52 361C69.3 385 86.7 391 104 376C121.3 361 138.7 325 156 301C173.3 277 190.7 265 208 280C225.3 295 242.7 337 260 346C277.3 355 294.7 331 311.8 325C329 319 346 331 363.2 340C380.3 349 397.7 355 415 350.5C432.3 346 449.7 331 467 325C484.3 319 501.7 322 519 314.5C536.3 307 553.7 289 571 275.5C588.3 262 605.7 253 623 248.5C640.3 244 657.7 244 666.3 244L675 244L675 107L666.3 107C657.7 107 640.3 107 623 111.5C605.7 116 588.3 125 571 128C553.7 131 536.3 128 519 132.5C501.7 137 484.3 149 467 147.5C449.7 146 432.3 131 415 119C397.7 107 380.3 98 363.2 104C346 110 329 131 311.8 147.5C294.7 164 277.3 176 260 165.5C242.7 155 225.3 122 208 119C190.7 116 173.3 143 156 159.5C138.7 176 121.3 182 104 179C86.7 176 69.3 164 52 153.5C34.7 143 17.3 134 8.7 129.5L0 125Z" fill="#2d77ff"></path><path d="M0 649L8.7 638.5C17.3 628 34.7 607 52 604C69.3 601 86.7 616 104 634C121.3 652 138.7 673 156 673C173.3 673 190.7 652 208 647.5C225.3 643 242.7 655 260 658C277.3 661 294.7 655 311.8 634C329 613 346 577 363.2 560.5C380.3 544 397.7 547 415 563.5C432.3 580 449.7 610 467 611.5C484.3 613 501.7 586 519 580C536.3 574 553.7 589 571 592C588.3 595 605.7 586 623 592C640.3 598 657.7 619 666.3 629.5L675 640L675 242L666.3 242C657.7 242 640.3 242 623 246.5C605.7 251 588.3 260 571 273.5C553.7 287 536.3 305 519 312.5C501.7 320 484.3 317 467 323C449.7 329 432.3 344 415 348.5C397.7 353 380.3 347 363.2 338C346 329 329 317 311.8 323C294.7 329 277.3 353 260 344C242.7 335 225.3 293 208 278C190.7 263 173.3 275 156 299C138.7 323 121.3 359 104 374C86.7 389 69.3 383 52 359C34.7 335 17.3 293 8.7 272L0 251Z" fill="#005de8"></path><path d="M0 901L8.7 901C17.3 901 34.7 901 52 901C69.3 901 86.7 901 104 901C121.3 901 138.7 901 156 901C173.3 901 190.7 901 208 901C225.3 901 242.7 901 260 901C277.3 901 294.7 901 311.8 901C329 901 346 901 363.2 901C380.3 901 397.7 901 415 901C432.3 901 449.7 901 467 901C484.3 901 501.7 901 519 901C536.3 901 553.7 901 571 901C588.3 901 605.7 901 623 901C640.3 901 657.7 901 666.3 901L675 901L675 638L666.3 627.5C657.7 617 640.3 596 623 590C605.7 584 588.3 593 571 590C553.7 587 536.3 572 519 578C501.7 584 484.3 611 467 609.5C449.7 608 432.3 578 415 561.5C397.7 545 380.3 542 363.2 558.5C346 575 329 611 311.8 632C294.7 653 277.3 659 260 656C242.7 653 225.3 641 208 645.5C190.7 650 173.3 671 156 671C138.7 671 121.3 650 104 632C86.7 614 69.3 599 52 602C34.7 605 17.3 626 8.7 636.5L0 647Z" fill="#004cbb"></path></svg>